<svg width="90" height="90" viewBox="0 0 90 90" fill="none" xmlns="http://www.w3.org/2000/svg">
<g clip-path="url(#clip0_604_12)">
<rect width="90" height="90" fill="black"/>
<path d="M26.7348 67C26.249 67 25.7328 66.9544 25.1862 66.8632C24.67 66.772 24.2146 66.6656 23.8198 66.544L24.5941 63.5798C24.8978 63.671 25.2166 63.747 25.5506 63.8078C25.915 63.8686 26.2641 63.899 26.5981 63.899C28.1467 63.899 29.4068 63.443 30.3785 62.5309C31.3501 61.6493 32.1092 60.5244 32.6558 59.1563L33.339 57.5147L23 35.3062H26.7803L32.2003 47.5733C32.6254 48.5461 33.0657 49.595 33.5212 50.7199C34.007 51.8143 34.4776 52.9088 34.9331 54.0033H35.1153C35.51 52.9392 35.9047 51.8599 36.2995 50.7655C36.7246 49.6406 37.1193 48.5765 37.4837 47.5733L42.3116 35.3062H45.8642L36.1173 59.2932C35.5707 60.7524 34.8875 62.0597 34.0677 63.215C33.2479 64.4006 32.2307 65.3279 31.0161 65.9967C29.8319 66.6656 28.4048 67 26.7348 67Z" fill="white"/>
<path d="M62.0335 58.0163C59.6954 58.0163 57.9039 57.3474 56.659 56.0098C55.4141 54.6417 54.7916 52.6504 54.7916 50.0358V28.0554H47.231V25H58.5264V50.3094C58.5264 51.9207 58.9211 53.0912 59.7106 53.8208C60.5001 54.5505 61.5476 54.9153 62.8533 54.9153C63.4909 54.9153 64.1438 54.8393 64.8118 54.6873C65.4798 54.5049 66.2237 54.2313 67.0435 53.8664L68 56.6938C66.998 57.0586 66.0567 57.3626 65.1761 57.6059C64.2956 57.8795 63.248 58.0163 62.0335 58.0163Z" fill="white"/>
</g>
<defs>
<clipPath id="clip0_604_12">
<rect width="90" height="90" fill="white"/>
</clipPath>
</defs>
</svg>
